<svg width="11" height="15" viewBox="0 0 11 15" fill="none" xmlns="http://www.w3.org/2000/svg">
<path d="M5.49884 0C2.50338 0 0.0664062 2.43697 0.0664062 5.4324C0.0664062 9.14983 4.9279 14.6072 5.13488 14.8377C5.3293 15.0543 5.66873 15.0539 5.86279 14.8377C6.06977 14.6072 10.9313 9.14983 10.9313 5.4324C10.9312 2.43697 8.49427 0 5.49884 0ZM5.49884 8.1656C3.99175 8.1656 2.76567 6.93949 2.76567 5.4324C2.76567 3.92531 3.99178 2.69924 5.49884 2.69924C7.0059 2.69924 8.23197 3.92534 8.23197 5.43243C8.23197 6.93952 7.0059 8.1656 5.49884 8.1656Z" fill="#4F4F4F"/>
</svg>
